<?xml version="1.0" encoding="UTF-8"?>
<svg id="Warstwa_1" xmlns="http://www.w3.org/2000/svg" version="1.1" viewBox="0 0 640 640">
  <!-- Generator: Adobe Illustrator 29.8.3, SVG Export Plug-In . SVG Version: 2.1.1 Build 3)  -->
  <defs>
    <style>
      .st0 {
        fill: #fff;
      }
    </style>
  </defs>
  <path class="st0" d="M395.14,123.62c8.72-14.8,24.55-23.86,41.64-23.86h2.52c25.35,0,45.88,20.54,45.88,45.88s-20.54,45.88-45.88,45.88h-84.07l39.91-67.9h0ZM244.87,123.62l39.91,67.9h-84.07c-25.35,0-45.88-20.54-45.88-45.88s20.54-45.88,45.88-45.88h2.52c17.09,0,33.04,9.06,41.64,23.86h0ZM347.65,95.75l-27.64,47.03-27.64-47.03c-18.58-31.65-52.54-51.04-89.13-51.04h-2.52c-55.75,0-100.94,45.2-100.94,100.94,0,16.52,4.02,32.11,11.01,45.88h-47.72c-20.31,0-36.71,16.4-36.71,36.71v36.71c0,20.31,16.4,36.71,36.71,36.71h513.88c20.31,0,36.71-16.4,36.71-36.71v-36.71c0-20.31-16.4-36.71-36.71-36.71h-47.72c6.99-13.76,11.01-29.36,11.01-45.88,0-55.75-45.2-100.94-100.94-100.94h-2.52c-36.59,0-70.54,19.39-89.13,50.93v.12h.01ZM576.95,356.71h-229.41v238.58h156c40.49,0,73.41-32.92,73.41-73.41v-165.18h.01ZM292.48,356.71H63.06v165.18c0,40.49,32.92,73.41,73.41,73.41h156v-238.58h.01Z"/>
</svg>